<svg width="67" height="67" viewBox="0 0 67 67" fill="none" xmlns="http://www.w3.org/2000/svg">
<g clip-path="url(#clip0)">
<path d="M66.7068 33.3536C66.7062 51.774 51.7737 66.7068 33.3533 66.7068C14.9322 66.7068 0 51.774 0 33.3536C0 14.9331 14.9326 0 33.3533 0C51.7737 0 66.7068 14.9331 66.7068 33.3536Z" fill="#FFE108"/>
<path d="M6.20312 33.3536C6.20312 18.3596 18.3581 6.20459 33.3522 6.20459C48.3462 6.20459 60.5013 18.3596 60.5013 33.3536C60.5013 48.3473 48.3458 60.5027 33.3522 60.5027C18.3581 60.5027 6.20312 48.3473 6.20312 33.3536Z" fill="#EEBA04"/>
<path d="M29.9578 42.1609L29.9335 31.9303L24.9156 40.3584H23.1374L18.1439 32.1495V42.1609H14.4414V25.1099H17.7055L24.0874 35.706L30.3719 25.1099H33.6116L33.6603 42.1609H29.9578ZM50.2259 33.2943C51.2005 33.6028 51.9637 34.1225 52.5157 34.8533C53.0681 35.5677 53.3439 36.4528 53.3439 37.5085C53.3439 39.0024 52.7595 40.1554 51.5901 40.9673C50.4371 41.7631 48.7484 42.1609 46.5236 42.1609H37.7058V25.1099H46.0363C48.115 25.1099 49.7063 25.5077 50.8106 26.3034C51.931 27.0991 52.4915 28.1791 52.4915 29.5431C52.4915 30.3713 52.2886 31.1102 51.8823 31.7598C51.4927 32.4093 50.9407 32.9208 50.2259 33.2943ZM41.6274 28.0816V32.1008H45.5493C46.5236 32.1008 47.2626 31.9303 47.7659 31.5893C48.2692 31.2482 48.5209 30.7448 48.5209 30.079C48.5209 29.4132 48.2692 28.9179 47.7659 28.5931C47.2626 28.2521 46.5236 28.0816 45.5493 28.0816H41.6274ZM46.2311 39.189C47.2704 39.189 48.0499 39.0187 48.5696 38.6775C49.1056 38.3366 49.3736 37.8088 49.3736 37.0944C49.3736 35.6815 48.3261 34.9752 46.2311 34.9752H41.6274V39.189H46.2311Z" fill="#FFF8DF"/>
</g>
<defs>
<clipPath id="clip0">
<rect width="67" height="67" fill="white"/>
</clipPath>
</defs>
</svg>
